<svg xmlns="http://www.w3.org/2000/svg" viewBox="0 0 640 760" role="img" aria-label="Ilustración de un consultorio médico con escritorio y diplomas">
  <defs><linearGradient id="w" x1="0" y1="0" x2="0" y2="1"><stop offset="0" stop-color="#F1ECE3"/><stop offset="1" stop-color="#E5DED1"/></linearGradient></defs>
  <rect width="640" height="760" fill="url(#w)"/>
  <rect y="560" width="640" height="200" fill="#D7CDBB"/>
  <!-- window -->
  <rect x="380" y="70" width="200" height="300" rx="4" fill="#DCE9EA" stroke="#fff" stroke-width="10"/>
  <path d="M480 70 V370 M380 220 H580" stroke="#fff" stroke-width="8"/>
  <path d="M390 360 L440 300 L470 330 L520 260 L570 360Z" fill="#B7CFD1" opacity=".7"/>
  <!-- frames -->
  <g fill="#fff" stroke="#B08D57" stroke-width="4">
    <rect x="70" y="90" width="120" height="90"/><rect x="210" y="90" width="120" height="90"/>
    <rect x="70" y="205" width="120" height="90"/><rect x="210" y="205" width="120" height="90"/>
  </g>
  <g stroke="#C9C2B3" stroke-width="4" stroke-linecap="round">
    <path d="M90 120h80M90 138h80M90 156h50M230 120h80M230 138h80M230 156h50M90 235h80M90 253h80M90 271h50M230 235h80M230 253h80M230 271h50"/>
  </g>
  <!-- plant -->
  <path d="M110 560 L100 470 h60 l-10 90z" fill="#fff"/>
  <path d="M130 470 C110 420 90 410 82 380 C112 392 128 420 130 470 M130 470 C140 410 170 395 182 366 C150 380 134 420 130 470 M130 470 C128 430 130 400 128 350 C142 390 140 430 130 470" fill="#4F7F76"/>
  <!-- desk -->
  <rect x="40" y="540" width="560" height="26" rx="4" fill="#8C6B49"/>
  <rect x="70" y="566" width="14" height="190" fill="#7A5C3E"/><rect x="556" y="566" width="14" height="190" fill="#7A5C3E"/>
  <!-- desk objects -->
  <rect x="190" y="505" width="130" height="35" fill="#fff"/><rect x="200" y="497" width="130" height="8" fill="#17404A"/>
  <rect x="400" y="470" width="90" height="70" rx="4" fill="#17404A"/><rect x="408" y="478" width="74" height="54" fill="#DCE9EA"/>
  <circle cx="525" cy="520" r="18" fill="#B08D57"/><rect x="522" y="470" width="6" height="50" fill="#2A3A40"/>
  <path d="M525 470 q30 -10 40 14" stroke="#2A3A40" stroke-width="5" fill="none"/>
</svg>
